<svg xmlns="http://www.w3.org/2000/svg" viewBox="0 0 1200 1200">
  <rect width="1200" height="1200" fill="#edf3f7"/>
  <g>
    <g transform="translate(50,190)">
      <path d="M170 220 H790 L850 310 V660 C850 742 790 800 710 800 H220 C140 800 80 742 80 660 V310 L170 220Z" fill="#7f8c9b" stroke="#243447" stroke-width="18"/>
      <path d="M170 220 H690 V310 H170Z" fill="#a5b0bc"/>
      <path d="M690 220 L850 310 V660 H690Z" fill="#697684"/>
      <rect x="230" y="330" width="450" height="200" rx="10" fill="#edf3f7" stroke="#243447" stroke-width="12"/>
      <circle cx="250" cy="820" r="72" fill="#8b98a5" stroke="#243447" stroke-width="18"/>
      <circle cx="690" cy="820" r="72" fill="#8b98a5" stroke="#243447" stroke-width="18"/>
      <circle cx="250" cy="820" r="28" fill="#edf3f7" stroke="#243447" stroke-width="10"/>
      <circle cx="690" cy="820" r="28" fill="#edf3f7" stroke="#243447" stroke-width="10"/>
      <path d="M270 430 H620" stroke="#243447" stroke-width="10" stroke-linecap="round"/>
      <path d="M270 500 H560" stroke="#243447" stroke-width="10" stroke-linecap="round"/>
    </g>
  </g>
  <text x="600" y="1075" text-anchor="middle" font-family="Arial, sans-serif" font-size="72" font-weight="700" fill="#243447" letter-spacing="3">LOGISTICS</text>
</svg>
