<svg xmlns="http://www.w3.org/2000/svg" viewBox="0 0 1200 1200">
  <rect width="1200" height="1200" fill="#efe9da"/>
  <g>
    <rect x="180" y="150" width="840" height="900" rx="30" fill="#f3d2a2" stroke="#2b2b29" stroke-width="18"/>
    <path d="M220 370 H980" stroke="#2b2b29" stroke-width="12" fill="none"/>
    <path d="M260 220 H940 V390 H260Z" fill="#f5efe7" stroke="#2b2b29" stroke-width="10"/>
    <rect x="320" y="330" width="560" height="430" rx="18" fill="#f9f5f2" stroke="#2b2b29" stroke-width="12"/>
    <g fill="#f5d8a8">
      <circle cx="370" cy="520" r="58"/>
      <circle cx="570" cy="520" r="58"/>
      <circle cx="770" cy="520" r="58"/>
    </g>
    <g fill="none" stroke="#2b2b29" stroke-width="8" stroke-linecap="round" stroke-linejoin="round">
      <path d="M340 490 C370 455, 412 455, 430 490"/>
      <path d="M540 490 C570 455, 612 455, 630 490"/>
      <path d="M740 490 C770 455, 812 455, 830 490"/>
      <path d="M340 570 C390 610, 450 620, 500 580"/>
      <path d="M540 570 C590 610, 650 620, 700 580"/>
      <path d="M740 570 C790 610, 850 620, 900 580"/>
      <path d="M460 610 L460 760 M600 610 L600 760"/>
    </g>
    <rect x="440" y="760" width="320" height="26" rx="13" fill="#2b2b29"/>
  </g>
  <text x="600" y="1095" text-anchor="middle" font-family="Arial, sans-serif" font-size="72" font-weight="700" fill="#2b2b29" letter-spacing="3">CAFE MENU</text>
</svg>
