<svg xmlns="http://www.w3.org/2000/svg" viewBox="0 0 1200 1200"><rect width="1200" height="1200" fill="#f3ead8"/><rect x="145" y="145" width="910" height="910" fill="white" stroke="#444" stroke-width="22"/><g fill="none" stroke="#444" stroke-width="18"><path d="M180 300q100-150 220-20M1020 300Q920 150 800 280M180 900q100 150 220 20M1020 900Q920 1050 800 920"/><path d="M260 210q40 40 80 0M940 210q-40 40-80 0M260 990q40-40 80 0M940 990q-40-40-80 0"/></g><g fill="#6d8a49"><circle cx="360" cy="230" r="28"/><circle cx="840" cy="230" r="28"/><circle cx="360" cy="970" r="28"/><circle cx="840" cy="970" r="28"/></g><circle cx="600" cy="600" r="260" fill="#e8e0c5" stroke="#444" stroke-width="14"/></svg>