<svg xmlns="http://www.w3.org/2000/svg" viewBox="0 0 1200 1200"><rect width="1200" height="1200" fill="#f7e0bd"/><rect x="145" y="145" width="910" height="910" fill="#e3b36d" stroke="#54202b" stroke-width="22"/><circle cx="600" cy="600" r="360" fill="#f4ba4e" stroke="#54202b" stroke-width="20"/><circle cx="600" cy="600" r="220" fill="#fffaf0"/><path d="M600 240v720M240 600h720" stroke="#54202b" stroke-width="12"/><g fill="#c63c3b"><circle cx="450" cy="420" r="30"/><circle cx="750" cy="420" r="30"/><circle cx="450" cy="780" r="30"/><circle cx="750" cy="780" r="30"/></g><g fill="#8f2038"><path d="M190 200l25 45 50 6-38 32 12 50-49-26-49 26 12-50-38-32 50-6zM960 960l25 45 50 6-38 32 12 50-49-26-49 26 12-50-38-32 50-6z"/></g></svg>